<?xml version="1.0" encoding="UTF-8" standalone="no"?>
<!-- Created with Inkscape (http://www.inkscape.org/) -->

<svg
   xmlns:dc="http://purl.org/dc/elements/1.1/"
   xmlns:cc="http://creativecommons.org/ns#"
   xmlns:rdf="http://www.w3.org/1999/02/22-rdf-syntax-ns#"
   xmlns:svg="http://www.w3.org/2000/svg"
   xmlns="http://www.w3.org/2000/svg"
   xmlns:sodipodi="http://sodipodi.sourceforge.net/DTD/sodipodi-0.dtd"
   xmlns:inkscape="http://www.inkscape.org/namespaces/inkscape"
   width="210mm"
   height="297mm"
   viewBox="0 0 210 297"
   version="1.1"
   id="svg8"
   inkscape:export-filename="C:\Users\Han\Desktop\tapawudyyoknano.png"
   inkscape:export-xdpi="179.40903"
   inkscape:export-ydpi="179.40903"
   inkscape:version="0.92.4 (5da689c313, 2019-01-14)"
   sodipodi:docname="tapawudyyoknano.svg">
  <defs
     id="defs2" />
  <sodipodi:namedview
     id="base"
     pagecolor="#ffffff"
     bordercolor="#666666"
     borderopacity="1.0"
     inkscape:pageopacity="0.0"
     inkscape:pageshadow="2"
     inkscape:zoom="0.35"
     inkscape:cx="447.90443"
     inkscape:cy="454.31877"
     inkscape:document-units="mm"
     inkscape:current-layer="g25"
     showgrid="false"
     inkscape:window-width="1366"
     inkscape:window-height="715"
     inkscape:window-x="-8"
     inkscape:window-y="-8"
     inkscape:window-maximized="1" />
  <metadata
     id="metadata5">
    <rdf:RDF>
      <cc:Work
         rdf:about="">
        <dc:format>image/svg+xml</dc:format>
        <dc:type
           rdf:resource="http://purl.org/dc/dcmitype/StillImage" />
        <dc:title></dc:title>
      </cc:Work>
    </rdf:RDF>
  </metadata>
  <g
     inkscape:label="Layer 1"
     inkscape:groupmode="layer"
     id="layer1">
    <g
       id="g25"
       transform="translate(-200.32738,-37.797619)">
      <path
         style="fill:#000000;stroke-width:0.23396674"
         d="m 296.44103,256.39749 c 2.18759,-1.73065 4.05865,-3.14739 4.15791,-3.1483 0.0993,0 0.58563,0.26647 1.08079,0.59412 3.80771,2.51983 9.16905,2.20414 12.73619,-0.74997 0.36375,-0.30124 0.73474,-0.54769 0.82441,-0.54769 0.0897,0 1.87595,1.42134 3.96945,3.15855 3.23406,2.68361 3.9255,3.15855 4.59837,3.15855 1.41905,0 2.2641,-1.71921 1.3523,-2.75129 -0.22519,-0.2549 -2.00779,-1.79153 -3.96133,-3.41472 -1.95354,-1.62318 -3.61667,-3.0561 -3.69587,-3.18422 -0.0792,-0.12813 0.0384,-0.73519 0.26128,-1.34903 0.28018,-0.7716 0.41159,-1.87217 0.42582,-3.56585 l 0.0205,-2.4498 10.37643,-4.87217 10.37642,-4.87221 1.55041,1.48471 c 1.86833,1.7892 2.84587,2.40724 4.90197,3.09924 l 1.56173,0.52564 0.11699,5.70306 c 0.0824,4.01219 0.20571,5.85831 0.41619,6.22672 0.60159,1.05286 2.45915,0.94446 3.0264,-0.17668 0.2111,-0.41721 0.29495,-2.14641 0.29743,-6.13328 l 0.004,-5.55227 0.64341,-0.14246 c 3.17981,-0.70399 5.78797,-2.33245 7.45012,-4.65157 0.50282,-0.70157 1.04854,-1.28061 1.21276,-1.28678 0.16415,-0.006 1.99366,0.88897 4.06543,1.98924 2.07179,1.10027 4.05662,2.0584 4.41069,2.12923 0.84675,0.16932 1.50576,-0.20684 1.85986,-1.06171 0.55936,-1.35045 0.10306,-1.76608 -4.72689,-4.30588 l -4.38687,-2.30682 v -2.15594 c 0,-1.18574 -0.16176,-2.77672 -0.35933,-3.53549 -0.33601,-1.29006 -0.33223,-1.40601 0.0585,-1.78671 1.01089,-0.98507 14.01907,-10.96084 14.29833,-10.96517 0.17072,-0.002 0.89104,0.41089 1.60067,0.91905 0.70962,0.50815 1.95188,1.1441 2.76052,1.41318 1.39543,0.46438 1.47763,0.53352 1.61382,1.35729 0.079,0.4774 0.14723,1.34175 0.15161,1.92082 0.0119,1.49831 0.37186,2.86283 0.84773,3.21078 0.70843,0.51802 1.8678,0.36877 2.40101,-0.30911 0.43806,-0.55692 0.46599,-0.82002 0.33325,-3.14019 l -0.14485,-2.53233 1.02906,-0.2738 c 1.68017,-0.44697 3.63135,-1.61297 4.83995,-2.89225 2.38626,-2.52581 3.24236,-4.94408 3.01081,-8.50475 l -0.14027,-2.15844 3.0934,-3.29867 c 1.70139,-1.81425 3.18751,-3.53924 3.30251,-3.83335 0.53257,-1.36201 -0.85588,-2.79403 -2.17806,-2.24639 -0.34874,0.14446 -1.77923,1.49514 -3.17884,3.00152 -1.39962,1.50637 -2.63452,2.77542 -2.74425,2.82015 -0.10983,0.0448 -0.69673,-0.3838 -1.30443,-0.95222 -1.33425,-1.24806 -2.83864,-2.14565 -4.25659,-2.53969 -0.57907,-0.16097 -1.16056,-0.42067 -1.29215,-0.5772 -0.16415,-0.19518 -0.0539,-3.06531 0.35095,-9.14233 l 0.59024,-8.85771 0.6192,-0.29612 c 0.34053,-0.16295 1.07753,-0.35853 1.63777,-0.43482 l 1.01857,-0.13867 4.0709,5.93053 c 2.23897,3.26178 4.33806,6.22005 4.6646,6.57393 1.47302,1.59628 3.86715,-0.0217 2.8485,-1.92528 -0.12714,-0.23772 -2.03755,-3.04717 -4.24515,-6.24322 -2.2076,-3.19606 -4.05218,-5.96894 -4.09907,-6.16195 -0.0856,-0.35211 1.86586,-2.57364 2.26066,-2.57364 0.1158,0 1.80622,0.78963 3.75662,1.75474 4.38884,2.17175 5.38048,2.24471 5.93033,0.43633 0.34797,-1.14442 -0.24697,-1.65773 -4.24521,-3.66251 l -3.83128,-1.92107 0.18801,-1.40381 c 0.40406,-3.01691 0,-5.67453 -1.23641,-8.11258 -0.31037,-0.61247 -0.56429,-1.15171 -0.56429,-1.19833 0,-0.0465 2.00685,-1.9027 4.45968,-4.12458 2.45282,-2.22189 4.55959,-4.30266 4.68176,-4.62394 0.46264,-1.21689 -0.95865,-2.66907 -2.15934,-2.20625 -0.3014,0.11619 -2.39546,1.88078 -4.65346,3.92136 -2.25803,2.04055 -4.27397,3.84565 -4.47991,4.01133 -0.31542,0.25373 -0.62449,0.16374 -1.96119,-0.57101 -0.87273,-0.47971 -2.22023,-1.0456 -2.99447,-1.25751 -0.7742,-0.21196 -1.48711,-0.53406 -1.58418,-0.71583 -0.20366,-0.38132 -1.3404,-16.8001 -1.19241,-17.22327 0.0541,-0.15459 0.43117,-0.39172 0.83799,-0.52686 0.40686,-0.13509 1.2135,-0.5609 1.79256,-0.94617 0.57907,-0.38525 1.11542,-0.70095 1.1919,-0.70149 0.0764,0 2.2765,2.2363 4.88896,4.97079 2.61245,2.73449 5.09845,5.16397 5.52446,5.39887 0.67338,0.37131 0.85921,0.38653 1.4227,0.11639 0.73869,-0.35403 1.14587,-1.26819 0.93089,-2.08995 -0.0804,-0.3076 -2.41086,-2.92819 -5.17867,-5.82353 -2.76781,-2.89532 -5.03331,-5.42217 -5.03444,-5.6152 0,-0.193 0.21828,-0.93002 0.48762,-1.63778 1.33666,-3.5122 0.48127,-7.96344 -2.0774,-10.81054 -1.17483,-1.30721 -3.24952,-2.61603 -4.95832,-3.1279 l -1.40911,-0.42207 v -4.8341 c 0,-4.995883 -0.16354,-6.128346 -0.94507,-6.546649 -0.66912,-0.358097 -1.52545,-0.27049 -2.12906,0.217789 -0.54527,0.44112 -0.55383,0.516589 -0.66933,5.90767 l -0.11699,5.46083 -0.7019,0.0587 c -0.67841,0.0567 -0.92769,-0.27348 -7.44752,-9.866101 -3.71008,-5.458631 -6.9473,-10.107324 -7.19378,-10.330383 -0.62174,-0.562692 -1.86618,-0.486566 -2.37795,0.145445 -0.89914,1.110372 -0.7493,1.388444 6.37377,11.827459 3.73176,5.46902 6.78502,10.0089 6.78502,10.08865 0,0.27737 -0.77631,1.00074 -1.074,1.00074 -0.36033,0 -19.07266,-11.36105 -19.28906,-11.71123 -0.0832,-0.13469 -0.01,-0.78885 0.16236,-1.453743 0.43233,-1.666664 0.39271,-4.593778 -0.0865,-6.392273 -0.35053,-1.31561 -0.3578,-1.541968 -0.0585,-1.826888 0.18782,-0.178871 2.71054,-1.982732 5.60588,-4.008583 6.16207,-4.311506 6.55107,-4.64079 6.55107,-5.545282 0,-0.82968 -0.93657,-1.817335 -1.72329,-1.817335 -0.36677,0 -2.7463,1.523861 -6.57608,4.211389 -3.30074,2.316278 -6.05464,4.21141 -6.11974,4.21141 -0.0651,0 -0.70915,-0.481235 -1.43121,-1.069414 -0.72204,-0.588179 -1.708,-1.271003 -2.19103,-1.517438 -0.48303,-0.246414 -0.93748,-0.543928 -1.00994,-0.66116 -0.0724,-0.117183 0.23627,-2.765296 0.68605,-5.884573 0.95916,-6.652356 0.98805,-7.308735 0.34979,-7.946994 -0.58145,-0.581449 -1.653,-0.603058 -2.33947,-0.04717 -0.46337,0.375184 -0.61651,1.08773 -1.41497,6.583093 -0.49244,3.389291 -0.98098,6.239909 -1.08559,6.334652 -0.10466,0.09471 -1.20284,0.239453 -2.44043,0.321463 l -2.25019,0.149226 -8.34412,-11.124528 c -5.58183,-7.441782 -8.54247,-11.199953 -8.94331,-11.352358 -0.78507,-0.298465 -1.73432,0.148624 -2.14807,1.011947 -0.25796,0.538197 -0.25634,0.752164 0.01,1.284693 0.17568,0.351431 3.79388,5.271487 8.0406,10.933483 4.24677,5.66199 7.80754,10.436748 7.91285,10.610559 0.13252,0.218782 -0.26507,0.776715 -1.29239,1.81324 -0.81615,0.823468 -1.60832,1.497221 -1.76035,1.497221 -0.32807,0 -21.36092,-11.381683 -21.79385,-11.7935 -0.24084,-0.229069 -0.22936,-0.477496 0.0601,-1.297546 0.61557,-1.744711 0.70236,-3.972571 0.23249,-5.967757 -0.24819,-1.053996 -0.33299,-1.859399 -0.2073,-1.969167 0.11699,-0.102067 1.61644,-0.803019 3.33217,-1.557447 3.85529,-1.695275 4.58878,-2.463715 3.64195,-3.815533 -0.81697,-1.166365 -1.25176,-1.111966 -5.28036,0.660559 -2.05228,0.902996 -3.83909,1.641812 -3.97067,1.641812 -0.13171,0 -0.68549,-0.365637 -1.23084,-0.81253 -3.90963,-3.203656 -10.10904,-3.057576 -13.77828,0.324587 -0.57036,0.525723 -1.16829,0.955885 -1.32873,0.955885 -0.16037,0 -1.57001,-0.769236 -3.13237,-1.709419 -1.56236,-0.940182 -3.02195,-1.778018 -3.24351,-1.861866 -0.6789,-0.256897 -1.75285,0.271091 -2.06009,1.012828 -0.52065,1.256998 -0.0607,1.78602 3.34474,3.847163 3.08426,1.866765 3.0954,1.876632 3.03187,2.69061 -0.16474,2.111369 -0.15161,4.904961 0.0282,5.968581 l 0.19837,1.174143 -10.49296,5.542339 c -5.77112,3.048302 -10.67632,5.610421 -10.90043,5.693668 -0.25379,0.09431 -0.4578,0.02013 -0.54086,-0.196376 -0.0778,-0.202848 2.05585,-4.193939 5.12318,-9.582881 6.05023,-10.629658 6.23668,-10.978719 6.23668,-11.677107 0,-0.742632 -0.89426,-1.603669 -1.66553,-1.603669 -0.35642,0 -0.90566,0.236889 -1.22048,0.526422 -0.31486,0.289533 -3.01277,4.84312 -5.99538,10.119058 -2.98261,5.275966 -5.51126,9.682977 -5.6192,9.79336 -0.10883,0.111424 -0.57246,0.0766 -1.04175,-0.07839 -0.46504,-0.153404 -1.5494,-0.349061 -2.40965,-0.434677 -1.83473,-0.182651 -1.49173,0.683859 -2.65293,-6.701681 -0.65974,-4.196244 -0.8488,-4.985356 -1.30315,-5.439727 -0.29232,-0.292321 -0.78529,-0.531475 -1.09547,-0.531475 -0.83518,0 -1.79651,0.852862 -1.79931,1.596269 -0.002,0.344525 0.39032,3.088933 0.8703,6.098679 0.86205,5.405826 0.86707,5.476158 0.41182,5.791975 -0.25348,0.175886 -1.17712,0.845537 -2.05256,1.488234 -0.87539,0.64271 -1.65581,1.168552 -1.73426,1.168552 -0.0784,0 -2.16881,-1.105502 -4.64523,-2.45665 -4.75484,-2.594308 -5.56207,-2.844426 -6.41778,-1.988721 -0.58768,0.587683 -0.61959,1.89748 -0.0585,2.399568 0.2252,0.201485 2.30457,1.39189 4.62085,2.645324 2.31626,1.253427 4.32776,2.420211 4.47001,2.592876 0.19001,0.230697 0.17448,0.638035 -0.0585,1.536314 -0.41084,1.583836 -0.39675,3.20975 0.044,5.079548 0.19479,0.826319 0.27219,1.579196 0.17191,1.67303 -0.66472,0.622598 -16.12745,11.284888 -16.39508,11.305148 -1.0605,0.0804 -0.7726,-0.70212 3.44406,-9.36092 2.7343,-5.614771 4.22912,-8.943339 4.22912,-9.417151 0,-1.432479 -1.66917,-2.190353 -2.77339,-1.259263 -0.26706,0.22519 -2.37655,4.305 -4.68771,9.066204 l -4.20218,8.65678 -1.09192,-0.0724 c -2.25929,-0.15002 -2.19689,-0.0451 -2.27069,-3.81338 -0.0644,-3.28759 -0.0706,-3.32165 -0.688,-3.78221 -0.66746,-0.49787 -1.36123,-0.44972 -2.18458,0.15162 -0.42419,0.30978 -0.47885,0.68712 -0.58491,4.03681 l -0.117,3.69506 -1.4038,0.77322 c -2.71473,1.49522 -4.89261,4.39134 -5.52708,7.3498 -0.37506,1.74883 -0.12734,4.29336 0.59325,6.09465 0.33298,0.83233 0.60544,1.56951 0.60544,1.63815 0,0.0686 -1.89349,1.82542 -4.20778,3.90389 -2.67298,2.40064 -4.26259,3.99749 -4.35806,4.37795 -0.30902,1.23115 0.85003,2.42773 2.05792,2.12459 0.30006,-0.0752 2.37469,-1.77322 4.61029,-3.77315 2.23558,-1.99996 4.17623,-3.63624 4.31256,-3.63624 0.13629,0 1.01698,0.3948 1.95705,0.87737 1.64117,0.84247 1.70842,0.90994 1.69059,1.69627 -0.01,0.45037 -0.45721,4.65593 -0.99336,9.34564 l -0.97478,8.52678 -1.33532,0.39548 c -0.73441,0.21753 -2.03905,0.78231 -2.89921,1.2551 l -1.56392,0.85965 -0.72727,-0.68088 c -6.55582,-6.13781 -6.54856,-6.1317 -7.27352,-6.1317 -1.13971,0 -1.75974,0.57444 -1.75974,1.63038 0,0.85909 0.1731,1.06723 3.64253,4.37956 l 3.64253,3.47759 -0.81581,1.70231 c -1.11611,2.32889 -1.46991,4.5206 -1.12275,6.95473 0.14783,1.03609 0.2687,2.0072 0.2687,2.15796 0,0.15081 -1.46551,1.37878 -3.25668,2.72897 -4.2282,3.18722 -4.55896,3.66236 -3.44842,4.95346 0.97872,1.13781 1.61861,0.92206 5.16649,-1.74169 1.74247,-1.30827 3.25197,-2.37868 3.35447,-2.37868 0.10247,0 0.84934,0.66894 1.65966,1.48653 l 1.47328,1.4865 -4.34614,8.6898 c -2.40911,4.81691 -4.34612,8.97041 -4.34612,9.31938 0,0.9036 0.84744,1.71257 1.79405,1.71257 0.63454,0 0.89464,-0.16554 1.4215,-0.90501 0.35469,-0.49777 2.48619,-4.60389 4.73663,-9.1247 3.40451,-6.83915 4.17311,-8.2197 4.57611,-8.2197 1.1667,0 1.17615,0.0394 2.66634,11.14383 0.77934,5.80744 1.41699,10.66255 1.41699,10.7892 0,0.12654 -0.50009,0.41621 -1.11133,0.6435 -1.28025,0.47609 -2.46456,1.1415 -3.41048,1.91625 -0.36375,0.29792 -0.73224,0.54008 -0.81887,0.53811 -0.0866,-0.002 -1.08861,-0.73943 -2.22659,-1.6388 -2.34634,-1.85435 -2.93498,-2.09145 -3.79442,-1.52835 -1.55435,1.01846 -1.13445,2.1402 1.65208,4.41326 1.15813,0.94474 2.08981,1.8676 2.07039,2.0508 -0.0199,0.18324 -0.21672,1.01748 -0.43843,1.85391 -1.41447,5.33624 1.7139,10.97614 7.08836,12.77915 1.09521,0.36742 1.5936,0.65709 1.63797,0.952 0.035,0.2331 0.20247,2.18679 0.37201,4.34147 0.35023,4.45162 0.51858,4.85613 2.02087,4.85613 0.8539,0 1.41766,-0.3951 1.69683,-1.18917 0.0716,-0.20364 -0.012,-2.15094 -0.18782,-4.32732 -0.17489,-2.17641 -0.24373,-4.02356 -0.15301,-4.10483 0.0907,-0.0814 0.72148,-0.32841 1.40188,-0.54919 0.68042,-0.22078 1.77753,-0.76512 2.43808,-1.20964 0.66056,-0.44451 1.38149,-0.7769 1.60205,-0.73868 0.22058,0.0382 4.65826,2.84755 9.86148,6.24287 l 9.46045,6.17331 -0.0159,2.95139 c -0.008,1.62327 0.0724,3.33555 0.18087,3.8051 l 0.19717,0.8537 -4.52545,2.32443 c -5.16988,2.65544 -5.93802,3.23581 -5.72071,4.32242 0.18981,0.94885 0.49631,1.29314 1.31067,1.47197 0.54345,0.11938 1.5832,-0.31404 5.57666,-2.32462 2.69976,-1.35922 5.01845,-2.47134 5.15261,-2.47134 0.1341,0 0.92962,0.519 1.76765,1.15329 1.40459,1.06313 3.18171,1.8085 5.31475,2.22915 0.73837,0.14565 0.90683,0.7714 0.9081,3.37336 0,0.9812 0.07,3.2982 0.1548,5.14892 0.13689,2.99385 0.21018,3.4303 0.66402,3.95793 0.68678,0.79842 1.88375,0.81155 2.51914,0.0277 0.43921,-0.54184 0.45124,-0.8205 0.28866,-6.68275 l -0.16972,-6.11735 1.51844,-0.72468 c 1.49015,-0.71118 3.37816,-2.30031 4.29516,-3.61522 l 0.46369,-0.66483 11.45162,4.31449 11.45165,4.31447 0.1538,1.99332 c 0.0997,1.29267 0.36311,2.51166 0.7494,3.46796 0.32759,0.81107 0.54764,1.55233 0.48901,1.64722 -0.0587,0.0949 -1.95176,1.62303 -4.20687,3.39584 -4.1669,3.27572 -4.52595,3.69298 -4.22154,4.90587 0.19459,0.7754 1.37617,1.30735 2.22348,1.00105 0.33074,-0.11958 2.39119,-1.63338 4.57878,-3.36404 z m 9.07526,-4.73048 c -2.62587,-0.87909 -4.47133,-2.86718 -4.9927,-5.3786 -0.78479,-3.78035 1.54263,-7.39763 5.39483,-8.38449 1.66264,-0.42596 2.83947,-0.30462 4.56061,0.47023 1.71978,0.77421 2.5845,1.61522 3.43314,3.33909 0.99597,2.02308 1.0492,3.99209 0.15997,5.91909 -0.84509,1.83151 -1.65988,2.69139 -3.31512,3.49855 -1.85789,0.90598 -3.60278,1.08447 -5.24077,0.53613 z m -8.25638,-11.92397 c -9.33242,-3.49567 -21.50849,-8.12039 -21.82353,-8.28897 -0.36295,-0.19419 -0.41235,-0.49277 -0.35406,-2.13954 l 0.0676,-1.91378 9.59264,-5.55248 c 5.27595,-3.05385 9.75664,-5.55585 9.95705,-5.55996 0.20042,-0.004 0.72683,0.48396 1.16983,1.08465 0.44299,0.60065 0.94567,1.2787 1.11706,1.50669 0.27417,0.36468 -0.0862,1.15483 -2.99611,6.57027 -1.81929,3.38562 -3.36516,6.43237 -3.43526,6.77051 -0.16931,0.81719 0.2153,1.47976 1.06303,1.83089 1.40636,0.58252 1.71792,0.20555 5.20726,-6.30086 1.75661,-3.27547 3.29116,-5.98785 3.41012,-6.0275 0.11898,-0.0395 0.83165,0.20004 1.58379,0.53267 0.75211,0.33263 1.95536,0.73917 2.67386,0.90345 l 1.30638,0.29869 -0.0764,5.00979 c -0.0804,5.27002 -0.13589,5.82526 -0.5827,5.83422 -0.64849,0.0139 -3.05205,1.17858 -4.13771,2.00651 -0.64663,0.49315 -1.61919,1.5056 -2.16119,2.24988 -0.54202,0.74431 -1.04066,1.34496 -1.10812,1.33481 -0.0674,-0.01 -0.28056,-0.0776 -0.4736,-0.15002 z m 18.12364,-2.19503 c -1.48151,-1.52307 -2.6509,-2.27109 -4.55357,-2.91289 l -1.52078,-0.51294 -0.0595,-1.37527 c -0.0328,-0.7564 0.0199,-3.1101 0.11699,-5.23046 l 0.17648,-3.85522 1.98873,-0.54397 c 1.0938,-0.29918 2.25193,-0.59765 2.57364,-0.66323 0.53148,-0.10843 0.94673,0.36489 4.54624,5.18148 2.23156,2.98609 4.19445,5.38937 4.49511,5.5037 1.37892,0.52425 2.80631,-0.96949 2.20211,-2.30454 -0.15758,-0.34807 -1.90947,-2.80151 -3.89322,-5.45212 -1.98373,-2.6506 -3.60678,-4.95293 -3.60678,-5.1163 0,-0.16335 0.43509,-0.73212 0.96685,-1.26386 0.53179,-0.53175 1.378,-1.57223 1.88046,-2.31216 0.50249,-0.73991 0.94238,-1.34529 0.97753,-1.34529 0.0352,0 3.52329,1.66433 7.75139,3.69856 l 7.68745,3.69858 0.0595,2.67702 c 0.0328,1.47235 0.0941,2.92058 0.13629,3.21826 0.0708,0.50001 -0.69822,0.9055 -10.09578,5.32274 -5.59487,2.62984 -10.28403,4.78151 -10.42032,4.78151 -0.13629,0 -0.77027,-0.53712 -1.40882,-1.1936 z m -54.10254,-1.85892 c -1.53914,-0.76912 -2.55325,-1.76829 -3.37943,-3.32958 -0.77343,-1.46165 -0.75652,-4.51109 0.0338,-6.11709 0.72164,-1.46624 1.96236,-2.70694 3.4286,-3.4286 1.6481,-0.81113 4.40527,-0.80797 6.0614,0.008 2.70825,1.33266 4.22872,3.93361 4.0412,6.91312 -0.17131,2.72282 -1.50507,4.72218 -3.9725,5.95518 -1.19245,0.59588 -1.70228,0.71287 -3.10658,0.71287 -1.40429,0 -1.91411,-0.11699 -3.10656,-0.71287 z m 85.69684,-1.93964 c -2.69453,-0.8983 -4.44254,-2.41015 -5.57903,-4.82525 -0.61022,-1.29669 -0.7107,-1.77902 -0.70687,-3.39251 0.006,-2.42274 0.64573,-4.12255 2.18709,-5.80903 4.64782,-5.08544 12.70616,-3.18294 14.63599,3.45539 1.13535,3.90548 -0.83618,8.19106 -4.61984,10.04222 -1.60046,0.78304 -4.4039,1.03376 -5.91734,0.52918 z m -74.23986,-11.17908 c -0.53571,-0.65857 -0.93776,-1.26396 -0.89341,-1.34531 5.5623,-10.20725 9.97352,-18.7805 9.97352,-19.38354 0,-1.44283 -1.90605,-2.231 -2.84526,-1.17655 -0.25861,0.29033 -2.60826,4.51148 -5.22144,9.38037 -2.61318,4.86884 -4.85377,8.955 -4.97913,9.08035 -0.26785,0.26785 -2.76547,-0.39065 -3.0154,-0.79502 -0.0881,-0.14246 -0.66319,-3.42576 -1.27806,-7.29613 -0.8606,-5.41728 -1.0536,-7.09556 -0.83854,-7.2914 0.1536,-0.13987 0.85407,-0.38004 1.55649,-0.53356 3.02495,-0.66122 6.37301,-2.89531 8.32648,-5.55607 0.60322,-0.82162 1.21601,-1.48885 1.36177,-1.4827 0.14584,0.006 4.31851,1.82245 9.27277,4.03626 l 9.00771,4.02514 -0.05,0.93553 c -0.0611,1.14255 -0.0583,5.50913 0.004,6.75988 l 0.0456,0.91105 -9.43903,5.46455 c -5.19144,3.00548 -9.56847,5.46452 -9.72673,5.46452 -0.15817,0 -0.72604,-0.53884 -1.26175,-1.19737 z m -26.27387,-5.96899 c -5.06916,-3.29809 -9.34826,-6.11819 -9.50906,-6.26689 -0.23253,-0.21502 -0.18762,-0.55624 0.21948,-1.66588 0.38384,-1.04651 0.51919,-1.96684 0.54112,-3.67978 0.0159,-1.25634 0.12794,-2.37841 0.24844,-2.49349 0.12058,-0.115 2.32492,-1.0553 4.89856,-2.08941 2.57361,-1.03409 5.0763,-2.04636 5.56147,-2.24946 l 0.88215,-0.36932 1.28204,1.2263 c 0.70513,0.67445 1.28204,1.39595 1.28204,1.60337 0,0.20742 -1.21077,2.60553 -2.69061,5.32915 -2.86117,5.26601 -3.13349,6.11801 -2.21967,6.94505 0.6138,0.55547 1.77712,0.54442 2.34085,-0.0223 0.24536,-0.24666 1.64887,-2.65943 3.11895,-5.36175 2.09923,-3.85885 2.76644,-4.90305 3.1089,-4.86555 0.74484,0.0816 3.9169,0.9992 4.08711,1.18233 0.1719,0.18503 2.32284,13.62711 2.31795,14.48603 -0.002,0.37986 -0.22459,0.57999 -0.88028,0.79208 -1.55365,0.50249 -2.68707,1.18179 -3.92437,2.35197 -0.66529,0.62921 -1.26335,1.14401 -1.32901,1.14401 -0.0657,0 -4.26688,-2.69845 -9.33606,-5.99654 z m 58.81254,3.07804 c -5.26775,-1.48681 -8.72952,-5.89133 -8.71294,-11.08566 0.004,-0.98374 0.1148,-2.2624 0.24822,-2.84146 0.70557,-3.06357 3.14323,-6.11122 6.05193,-7.56638 6.10124,-3.05232 13.26915,-0.27469 15.95715,6.18354 0.44485,1.06879 0.52805,1.70293 0.53436,4.07346 0.006,2.40779 -0.0702,3.00165 -0.53879,4.17027 -1.18354,2.95228 -3.88197,5.54698 -6.97114,6.70329 -1.78273,0.66724 -4.88357,0.83859 -6.56879,0.36294 z m 25.32625,-4.02308 c -4.1163,-1.99252 -7.54648,-3.72355 -7.62261,-3.84671 -0.0762,-0.12316 -0.0467,-0.87842 0.0653,-1.67836 0.24353,-1.73946 -0.0929,-4.68848 -0.75427,-6.61069 -0.25219,-0.73297 -0.4028,-1.42285 -0.3347,-1.53302 0.17091,-0.27654 15.00374,-10.27328 15.24314,-10.27328 0.10605,0 0.82302,0.64745 1.59306,1.43877 2.23153,2.29318 4.49989,3.57693 7.80721,4.41839 l 1.02589,0.26102 -0.16255,7.41093 c -0.0893,4.076 -0.21596,7.59518 -0.28131,7.82037 -0.0653,0.22519 -0.29595,0.41193 -0.51246,0.41498 -0.21651,0.004 -1.02347,0.26444 -1.79318,0.58086 -1.10886,0.45578 -1.45932,0.51537 -1.68737,0.2869 -0.15837,-0.15857 -2.31884,-3.28513 -4.8012,-6.9478 -2.71058,-3.99945 -4.76373,-6.79997 -5.14023,-7.01129 -1.30132,-0.73039 -2.9176,0.6352 -2.39306,2.02189 0.1357,0.35881 2.27036,3.62936 4.74364,7.26793 2.4733,3.63854 4.55333,6.76259 4.62231,6.94237 0.14106,0.36747 -1.51437,2.7147 -1.89091,2.68116 -0.13331,-0.0119 -3.61038,-1.65188 -7.7267,-3.64442 z m 27.12269,1.06061 c -1.13483,-1.21159 -3.20785,-2.42324 -5.11428,-2.98919 l -1.79735,-0.53356 0.13829,-6.47009 c 0.076,-3.55851 0.19339,-7.01465 0.26067,-7.68024 l 0.12257,-1.21026 0.9798,-0.16354 c 0.53885,-0.0899 1.67684,-0.41391 2.52887,-0.72 0.85198,-0.30608 1.65372,-0.55652 1.78162,-0.55652 0.12793,0 1.99284,2.73844 4.14428,6.08543 2.15147,3.34699 4.10655,6.18969 4.34463,6.3171 0.66702,0.35698 1.27777,0.27777 1.95285,-0.25326 1.15497,-0.90849 0.95065,-1.40848 -3.24399,-7.93788 -2.12324,-3.30505 -3.86043,-6.14468 -3.86043,-6.31026 0,-0.16553 0.34218,-0.6898 0.76038,-1.16489 0.41822,-0.47512 0.9977,-1.14723 1.28777,-1.49356 l 0.52739,-0.62969 1.46134,0.73403 c 2.37031,1.19055 8.92518,4.69395 9.21923,4.9274 0.20204,0.16036 0.16195,0.52502 -0.15739,1.43377 -0.68378,1.94545 -0.79281,3.77778 -0.34383,5.77875 0.21657,0.96511 0.40959,1.92996 0.42897,2.14413 0.0374,0.41414 -13.87096,11.42594 -14.43149,11.42594 -0.16653,0 -0.61185,-0.33015 -0.9898,-0.73368 z m -132.539,-4.71836 c -3.2352,-0.9147 -5.2329,-3.57069 -5.22604,-6.9482 0.006,-2.88651 1.35656,-5.05742 3.937,-6.32777 3.72005,-1.83138 7.93269,-0.30871 9.68313,3.49994 2.43373,5.29542 -2.77714,11.36412 -8.39409,9.77603 z m 156.06737,-3.42352 c -2.13005,-0.65027 -4.12836,-2.48947 -4.77874,-4.39821 -1.93261,-5.67194 3.19097,-11.00451 8.93444,-9.2989 1.59738,0.4744 3.54919,2.25394 4.28749,3.90913 0.81818,1.83424 0.77978,4.30767 -0.0927,5.9789 -1.34046,2.56731 -3.71658,4.04858 -6.42896,4.00775 -0.73509,-0.0119 -1.59975,-0.10048 -1.92145,-0.19877 z m -95.76514,-11.68683 c -4.86556,-2.16646 -8.9513,-4.04384 -9.0794,-4.17193 -0.15459,-0.1546 -0.14385,-0.90144 0.0317,-2.22027 0.30144,-2.26502 0.0672,-4.61781 -0.67285,-6.76176 -0.24913,-0.72158 -0.3846,-1.42253 -0.30107,-1.55769 0.18961,-0.30694 16.18047,-10.58344 16.46839,-10.58344 0.40295,0 2.51686,1.94777 2.5155,2.31778 0,0.20506 -2.4223,4.41272 -5.38123,9.35034 -2.95893,4.93762 -5.37989,9.20457 -5.37989,9.48207 0,1.27492 1.5997,2.16393 2.65245,1.47414 0.29025,-0.1902 2.93948,-4.36976 5.88719,-9.28794 2.9477,-4.91819 5.48585,-8.99067 5.64032,-9.04996 0.1544,-0.0593 0.97422,0.10645 1.82168,0.36813 0.84744,0.26175 2.07734,0.54709 2.7331,0.63407 0.65577,0.087 1.23246,0.27503 1.28154,0.41785 0.12217,0.35513 1.50867,14.62884 1.50867,15.53042 0,0.67886 -0.0818,0.74636 -1.34532,1.1113 -3.07,0.88665 -6.19614,3.09293 -8.14579,5.74889 -0.46381,0.63181 -0.96592,1.14612 -1.11581,1.14291 -0.14982,-0.004 -4.25345,-1.77843 -9.11904,-3.94491 z m -26.80716,2.87907 c -1.91472,-0.51497 -3.97237,-1.71086 -5.40447,-3.14109 -3.47735,-3.4729 -4.28159,-8.83055 -1.99977,-13.32212 0.76239,-1.50072 2.88755,-3.80638 4.23811,-4.59813 4.58425,-2.68737 10.25999,-2.00852 14.00258,1.67473 2.30619,2.26965 3.40924,4.92042 3.40924,8.19288 0,4.41395 -2.30151,8.23111 -6.14,10.18332 -2.6612,1.35348 -5.50969,1.70855 -8.10569,1.01041 z m -23.36971,-1.5647 c -0.54401,-0.55429 -0.9891,-1.13789 -0.9891,-1.2969 0,-0.15898 1.90992,-4.11066 4.24425,-8.78149 4.12589,-8.25561 4.23516,-8.5114 3.91841,-9.17227 -0.39842,-0.83128 -1.36034,-1.21906 -2.255,-0.90913 -0.55143,0.191 -1.25114,1.41 -4.89437,8.52645 -2.33802,4.56696 -4.33844,8.30002 -4.44537,8.29568 -0.75498,-0.0306 -2.19358,-0.42731 -2.37125,-0.65381 -0.17847,-0.22758 -2.83042,-19.1561 -2.93694,-20.96319 -0.0298,-0.50637 0.16095,-0.63452 1.76144,-1.18306 0.98722,-0.3383 2.38061,-1.00401 3.09646,-1.4793 0.71585,-0.4753 1.44272,-0.86418 1.6153,-0.86418 0.17251,0 3.83285,2.53011 8.13395,5.62242 5.41151,3.89068 7.80855,5.74628 7.78238,6.02463 -0.0209,0.22125 -0.3062,1.10642 -0.63429,1.96707 -1.14098,2.99308 -1.22599,6.74941 -0.22469,9.92591 0.21754,0.69013 0.34283,1.30747 0.27843,1.3719 -0.0905,0.0905 -4.79605,2.03337 -10.85129,4.48042 -0.13151,0.0531 -0.68429,-0.35684 -1.22832,-0.91115 z m 82.84182,-0.86382 c -1.8398,-1.74877 -4.62999,-3.16289 -7.26149,-3.68028 -1.86864,-0.3674 -1.92993,-0.40049 -2.04347,-1.10299 -0.34366,-2.12639 -1.49979,-15.46594 -1.35161,-15.59496 0.0959,-0.0834 1.0453,-0.41866 2.10995,-0.745 l 1.93572,-0.59331 0.78021,0.96853 c 0.4291,0.53268 3.22102,4.23236 6.20426,8.22148 3.49447,4.67273 5.64498,7.34704 6.04503,7.51734 0.75203,0.32017 1.83303,0.01 2.17228,-0.62453 0.56933,-1.06382 0.27445,-1.55723 -5.68977,-9.51956 -3.25531,-4.34596 -6.00455,-8.04241 -6.10937,-8.21433 -0.13032,-0.21373 0.1735,-0.65757 0.96059,-1.40379 0.63312,-0.60017 1.53134,-1.56142 1.99602,-2.13612 l 0.84486,-1.04489 8.32475,4.06927 c 4.57861,2.23808 8.32474,4.15082 8.32474,4.25052 0,0.0997 -0.15797,0.78758 -0.35093,1.52864 -0.45729,1.75568 -0.44751,5.06057 0.0211,7.12082 0.20464,0.89965 0.31763,1.77754 0.25112,1.95086 -0.15101,0.39335 -14.99718,10.42982 -15.41158,10.41866 -0.16634,-0.004 -0.95491,-0.62834 -1.75238,-1.38636 z m 28.7713,-3.41094 c -5.12329,-1.37991 -8.70884,-5.95059 -8.71819,-11.11364 -0.008,-4.41541 2.4345,-8.34158 6.39999,-10.28739 3.12427,-1.53307 6.10383,-1.67515 9.38494,-0.44753 4.75285,1.77827 7.92012,7.24333 7.14209,12.32354 -0.68927,4.50077 -4.1775,8.3878 -8.54906,9.52645 -1.6858,0.43908 -4.02635,0.4385 -5.65977,-0.002 z m 26.10102,-1.50707 c -1.45836,-0.76149 -4.02029,-2.11104 -5.69315,-2.99902 -3.43671,-1.8242 -3.18959,-1.38996 -2.67738,-4.7044 0.34976,-2.26317 0.0671,-5.03918 -0.72524,-7.124 -0.25167,-0.66213 -0.45764,-1.3208 -0.45772,-1.46368 -10e-5,-0.25131 11.00434,-7.38315 11.63049,-7.53755 0.17051,-0.042 0.85615,0.41457 1.52363,1.01468 1.31612,1.18332 2.64793,1.9289 4.56875,2.5577 1.07527,0.35201 1.22818,0.47994 1.22718,1.02673 -0.004,2.36783 -1.20888,17.72096 -1.4058,17.91787 -0.16732,0.16733 -0.3632,0.16833 -0.62468,0.004 -0.20951,-0.13211 -2.24441,-3.80289 -4.52199,-8.15718 -4.08706,-7.81369 -4.55477,-8.52248 -5.63957,-8.5463 -0.73428,-0.0159 -1.61111,0.91434 -1.60674,1.70497 0.002,0.50328 1.32534,3.27013 4.09442,8.56575 2.24966,4.30227 4.0903,7.9488 4.0903,8.10342 0,0.15459 -0.25445,0.44783 -0.56547,0.65163 -0.5426,0.3555 -0.67286,0.31444 -3.21703,-1.01403 z M 271.99914,177.80104 c -0.89825,-0.91525 -0.99522,-1.11146 -0.78031,-1.57928 0.13489,-0.29381 2.57498,-4.51387 5.42231,-9.37794 5.47203,-9.3478 5.71281,-9.90104 4.70602,-10.81219 -0.67172,-0.6079 -1.78417,-0.54435 -2.43749,0.13927 -0.29723,0.31098 -2.83501,4.51361 -5.63955,9.33916 -2.80451,4.82558 -5.18267,8.86937 -5.28478,8.98623 -0.10903,0.12475 -0.88969,0.0119 -1.89168,-0.27296 -0.93834,-0.26699 -1.99561,-0.54885 -2.34949,-0.62636 l -0.64341,-0.14087 v -8.64784 -8.64786 l 0.64341,-0.13471 c 4.16312,-0.87117 7.11162,-2.56209 9.40072,-5.39116 0.45945,-0.5678 0.9559,-1.03278 1.10326,-1.03326 0.37684,-0.002 13.70548,5.86319 14.06543,6.18863 0.22598,0.2043 0.23971,0.56051 0.0585,1.51605 -0.57306,3.0217 -0.10107,7.14696 1.13839,9.94889 0.42289,0.95598 0.42753,1.05228 0.0662,1.37326 -0.86217,0.76586 -15.82475,10.2181 -16.17493,10.2181 -0.20732,0 -0.83849,-0.47029 -1.40258,-1.04508 z m -29.30013,-5.06194 c -4.1565,-2.97284 -7.73952,-5.57956 -7.96228,-5.79275 -0.3835,-0.36703 -0.37465,-0.46285 0.16614,-1.80196 0.85319,-2.11228 1.13865,-4.35271 0.80497,-6.31796 -0.15162,-0.89223 -0.28822,-1.82579 -0.30382,-2.07456 -0.0233,-0.37008 1.16278,-1.01648 6.52271,-3.55496 3.60308,-1.70645 6.701,-3.10851 6.8843,-3.11567 0.35918,-0.0139 3.8307,3.19858 3.95075,3.65616 0.04,0.1522 -1.68413,3.57392 -3.83124,7.60391 -4.06022,7.6207 -4.34482,8.3762 -3.50485,9.30435 0.54777,0.60527 1.84215,0.63667 2.42012,0.0587 0.23147,-0.23148 2.14009,-3.67958 4.24139,-7.66241 2.10127,-3.98286 3.9085,-7.33777 4.01606,-7.45538 0.11719,-0.12813 0.78506,-0.0738 1.66626,0.1353 l 1.47074,0.34908 v 8.72309 8.72313 l -1.75476,0.50969 c -2.17069,0.63049 -4.27042,1.73866 -5.85142,3.0882 -0.66319,0.56607 -1.24451,1.02922 -1.29182,1.02922 -0.0474,0 -3.4868,-2.43232 -7.64331,-5.40511 z m 86.02944,-2.4627 c -4.3752,-2.13032 -8.04859,-3.96266 -8.16313,-4.07187 -0.12097,-0.1154 -0.0334,-1.03157 0.20925,-2.18793 0.54216,-2.5835 0.39705,-6.37726 -0.32519,-8.50128 -0.27208,-0.8002 -0.4947,-1.55201 -0.4947,-1.67068 0,-0.26244 13.34974,-7.5199 13.83246,-7.5199 0.18823,0 0.81148,0.47845 1.38517,1.06322 2.16769,2.20953 5.46979,3.84804 8.62443,4.27945 0.78485,0.10745 1.4823,0.2505 1.54991,0.31811 0.0677,0.0676 0.47518,3.58574 0.90572,7.81806 0.57783,5.68046 0.71402,7.76166 0.52015,7.94924 -0.14445,0.13968 -0.92582,0.44751 -1.73636,0.68393 -1.44348,0.421 -1.48267,0.42058 -1.90623,-0.0201 -0.23784,-0.24749 -2.87453,-3.66115 -5.85927,-7.58596 -2.98475,-3.92477 -5.6862,-7.37286 -6.00321,-7.66239 -0.71838,-0.65612 -1.4746,-0.66993 -2.27349,-0.0416 -1.29151,1.01591 -1.15078,1.27347 5.34276,9.77764 l 5.95921,7.80444 -1.57233,1.72477 c -0.8648,0.94862 -1.67765,1.72281 -1.80632,1.72043 -0.12873,-0.002 -3.81366,-1.74731 -8.18883,-3.87764 z m -27.10626,2.81789 c -4.77431,-1.15576 -8.87261,-5.4662 -9.76915,-10.27489 -1.46508,-7.85812 4.76013,-15.32483 12.77683,-15.32483 6.83427,0 12.48591,5.32554 12.91128,12.16628 0.53573,8.61476 -7.56966,15.45457 -15.91896,13.43344 z m 58.05107,-1.61397 c -1.72174,-1.62302 -4.59418,-3.05506 -7.06507,-3.52226 -1.02112,-0.193 -1.89209,-0.38657 -1.9355,-0.42994 -0.1735,-0.1737 -1.65162,-15.71626 -1.5087,-15.8653 0.0844,-0.0881 0.89034,-0.4267 1.79089,-0.75244 1.28006,-0.46305 1.69677,-0.53022 1.90957,-0.3078 0.14963,0.15658 2.13644,3.65363 4.41497,7.77145 2.27854,4.11781 4.31456,7.66455 4.52452,7.88162 0.20997,0.21708 0.66864,0.46471 1.01926,0.5503 0.51394,0.12555 0.77476,0.0179 1.34531,-0.55216 0.38929,-0.38927 0.70779,-0.90648 0.70779,-1.14933 0,-0.24286 -2.00042,-4.04738 -4.44537,-8.45453 -2.44494,-4.40717 -4.44537,-8.19674 -4.44537,-8.42131 0,-0.58694 1.52337,-1.99783 1.97145,-1.82589 0.5151,0.19777 14.45777,9.01406 14.83004,9.37753 0.25298,0.24699 0.23772,0.64066 -0.0872,2.24349 -0.42761,2.11037 -0.35024,4.01601 0.24309,5.98752 0.22264,0.73979 0.25999,1.21557 0.10963,1.39673 -0.39197,0.47229 -11.36181,7.35545 -11.7082,7.34644 -0.18087,-0.004 -0.93285,-0.57803 -1.67127,-1.27412 z m -138.82239,-2.87343 c -2.39565,-0.85554 -4.36609,-2.79203 -5.25677,-5.16625 -0.70352,-1.87527 -0.58161,-4.77374 0.27702,-6.58739 0.80471,-1.69973 2.49214,-3.40202 4.13638,-4.17275 1.16302,-0.5452 1.62428,-0.62358 3.66986,-0.62358 2.02685,0 2.51181,0.0808 3.62706,0.60394 1.6427,0.77064 3.29494,2.42286 4.13634,4.13638 0.58977,1.20096 0.65942,1.58998 0.65942,3.68248 0,2.83189 -0.41613,3.91712 -2.24248,5.84824 -1.73281,1.83217 -3.27908,2.53138 -5.81048,2.62732 -1.49941,0.0569 -2.30852,-0.0312 -3.19635,-0.34839 z m 160.96911,0 c -2.39564,-0.85554 -4.36606,-2.79203 -5.25676,-5.16625 -0.73561,-1.96089 -0.59043,-4.78957 0.34347,-6.69163 0.86832,-1.76851 2.24057,-3.14077 4.00908,-4.00908 1.91556,-0.94052 4.72943,-1.07958 6.7219,-0.33215 1.78013,0.6678 3.90699,2.6276 4.77931,4.4039 0.58441,1.19013 0.65143,1.57189 0.64378,3.66804 -0.01,2.82149 -0.43774,3.949 -2.20561,5.81826 -1.72886,1.82802 -3.34237,2.56262 -5.83638,2.65721 -1.50192,0.0569 -2.31055,-0.031 -3.19879,-0.3483 z m -150.05587,-17.165 c -1.43457,-1.359 -1.6967,-1.7165 -1.49388,-2.03737 0.1353,-0.21405 2.41724,-3.49506 5.07096,-7.29117 5.25278,-7.51403 5.44048,-7.90931 4.21437,-8.87377 -0.67503,-0.53098 -1.28583,-0.61024 -1.95263,-0.25338 -0.23796,0.12734 -2.81791,3.65441 -5.73323,7.83788 -5.12296,7.35146 -5.82474,8.17469 -6.30554,7.39672 -0.16892,-0.2732 1.6964,-17.34825 1.94441,-17.79962 0.10426,-0.18961 0.83318,-0.47507 1.61997,-0.63432 1.81867,-0.36808 3.57096,-1.24897 5.1494,-2.58862 0.96034,-0.81505 1.33766,-1.00751 1.66418,-0.84885 0.23225,0.1128 2.91396,2.04765 5.95936,4.29958 6.19755,4.58278 5.71259,3.91666 4.94002,6.78503 -0.54005,2.00506 -0.54101,5.04632 -0.002,7.33376 0.25233,1.07149 0.33949,1.8872 0.21359,1.99901 -0.23275,0.20673 -13.27041,6.34912 -13.44264,6.33319 -0.0583,-0.006 -0.88909,-0.75153 -1.84601,-1.65807 z m 27.35922,0.96002 c -1.85342,-0.38647 -4.39618,-1.8127 -5.8325,-3.27151 -2.38474,-2.42204 -3.44391,-5.33123 -3.23245,-8.87844 0.13768,-2.30869 0.5496,-3.49506 1.96338,-5.6541 2.99715,-4.57699 9.16897,-6.33823 14.14071,-4.03527 3.09125,1.43189 5.56729,4.29626 6.41231,7.41794 0.55389,2.04626 0.40066,5.34122 -0.33718,7.25022 -1.1261,2.91357 -3.85033,5.54278 -6.94137,6.6993 -1.54983,0.57985 -4.55369,0.80948 -6.1729,0.47186 z m 108.09265,-4.47014 c -6.20185,-3.93805 -7.36304,-4.76073 -7.32621,-5.19061 0.0241,-0.28096 0.2682,-1.30047 0.54252,-2.26558 0.42225,-1.48558 0.47929,-2.14955 0.37192,-4.3284 -0.0698,-1.41549 -0.15599,-2.82682 -0.19161,-3.13627 -0.0591,-0.51351 0.4358,-0.82365 5.66749,-3.55198 3.1527,-1.64416 5.90801,-2.99655 6.1229,-3.00537 0.21489,-0.008 1.00454,0.59614 1.75476,1.34428 1.54631,1.54211 3.30568,2.49377 5.4,2.92097 0.78914,0.16096 1.49925,0.35712 1.578,0.43585 0.12594,0.12594 1.27281,14.97682 1.28381,16.62337 0.004,0.54532 -0.12953,0.67043 -0.94925,0.89114 -0.52441,0.14126 -1.10014,0.22423 -1.2794,0.18443 -0.17927,-0.0398 -2.81027,-3.75722 -5.84674,-8.26109 -3.03644,-4.50385 -5.69203,-8.32043 -5.9013,-8.48129 -0.55336,-0.42533 -1.56183,-0.35819 -2.18365,0.14544 -1.17698,0.95304 -0.96625,1.38485 4.89921,10.03852 2.98965,4.41085 5.49793,8.18173 5.57389,8.37976 0.16554,0.43114 -1.24413,1.97426 -1.78287,1.9518 -0.19997,-0.008 -3.68002,-2.12106 -7.73349,-4.69491 z m -84.34502,1.44971 -6.78504,-3.00352 0.0231,-0.787 c 0.012,-0.43285 0.1524,-1.62021 0.31022,-2.63854 0.34646,-2.23409 0.0822,-4.67454 -0.7562,-6.98443 -0.30818,-0.84902 -0.49703,-1.63924 -0.41966,-1.75605 0.20474,-0.30921 15.82035,-8.47628 16.20682,-8.47628 0.17927,0 0.9418,0.62214 1.69426,1.38256 l 1.36811,1.38254 -4.23021,6.76127 c -2.32662,3.71867 -4.33762,7.04382 -4.46892,7.38918 -0.45398,1.19398 0.32532,2.26973 1.64421,2.26973 1.10505,0 0.87151,0.30948 6.06602,-8.03706 2.23052,-3.58395 4.16787,-6.55888 4.3053,-6.61091 0.13748,-0.0521 1.14473,0.0983 2.23854,0.33416 l 1.98872,0.42885 0.062,6.32585 c 0.048,4.8848 -0.006,6.37865 -0.23396,6.55775 -0.16295,0.12754 -0.82257,0.35849 -1.46598,0.51321 -1.7641,0.42415 -4.73805,1.95567 -6.34305,3.26649 -0.78637,0.64221 -2.02937,1.96437 -2.76224,2.93814 -0.73288,0.97374 -1.40556,1.7653 -1.49483,1.75902 -0.0893,-0.006 -3.21562,-1.36302 -6.9474,-3.01496 z m 34.18885,0.12276 c -1.98605,-2.42372 -5.722,-4.56477 -9.19047,-5.26697 l -2.06964,-0.419 v -6.47822 -6.4782 l 1.98872,-0.70408 c 1.09378,-0.38726 2.19539,-0.72471 2.44795,-0.74987 0.36189,-0.036 1.39143,1.39229 4.85753,6.73924 6.11324,9.43065 5.61225,8.77377 6.69145,8.77377 1.30781,0 2.11819,-1.06716 1.68184,-2.21483 -0.11978,-0.31516 -2.32901,-3.83566 -4.90932,-7.82336 -2.58026,-3.98771 -4.74976,-7.40243 -4.82109,-7.58826 -0.12753,-0.33261 2.14821,-3.43057 2.5202,-3.43057 0.10166,0 3.58111,1.62663 7.73199,3.61475 5.95093,2.85024 7.53964,3.70383 7.51184,4.03592 -0.0199,0.23166 -0.21408,1.21082 -0.43268,2.17593 -0.49863,2.20136 -0.35671,5.30595 0.3452,7.55018 0.27248,0.87122 0.44072,1.6725 0.37389,1.78061 -0.11958,0.19359 -13.5266,7.51482 -13.76135,7.51482 -0.0662,0 -0.50099,-0.46434 -0.96606,-1.03186 z m 25.58966,-1.73435 c -2.00016,-0.66945 -3.25111,-1.39561 -4.59704,-2.6685 -4.82135,-4.55986 -5.00535,-11.76468 -0.41945,-16.42445 2.26964,-2.30619 4.92041,-3.40925 8.19287,-3.40925 5.44075,0 9.83807,3.43942 11.20545,8.76442 1.40842,5.48484 -1.66607,11.27015 -7.16873,13.48959 -1.77696,0.71669 -5.43699,0.84263 -7.2131,0.24819 z m -99.40519,-20.55091 -5.8973,-4.36581 0.18424,-1.07393 c 0.34009,-1.98281 0.17628,-4.71458 -0.36615,-6.10419 -0.27626,-0.70775 -0.50231,-1.36055 -0.50239,-1.45068 -6e-5,-0.0901 3.64425,-2.71411 8.09849,-5.83111 8.36963,-5.85692 8.73978,-6.05358 8.92766,-4.7436 0.035,0.24423 -2.20833,4.59367 -4.98525,9.66546 -2.77696,5.07177 -5.1038,9.49541 -5.17078,9.83029 -0.18105,0.90544 0.67348,1.88832 1.64183,1.88832 0.41644,0 0.92962,-0.13151 1.14035,-0.29245 0.21076,-0.16076 2.65837,-4.45122 5.43915,-9.53415 2.78076,-5.08293 5.1456,-9.33202 5.25517,-9.4424 0.11082,-0.11162 0.57362,-0.0772 1.04217,0.0774 l 0.84292,0.27819 -0.0609,9.98251 -0.0611,9.98249 -1.55108,0.49831 c -2.36094,0.75844 -4.36231,1.92382 -6.07751,3.53883 -0.85416,0.80427 -1.65409,1.4623 -1.77759,1.4623 -0.12355,0 -2.87838,-1.96463 -6.12191,-4.36582 z m 28.42168,2.78655 c -0.69676,-0.61125 -1.32476,-1.23878 -1.39558,-1.39451 -0.0708,-0.15558 2.07728,-3.99473 4.77362,-8.53119 3.23448,-5.4419 4.90237,-8.4699 4.90237,-8.90005 0,-1.39885 -2.01683,-2.16926 -2.97395,-1.13602 -0.23022,0.24853 -2.5769,4.09038 -5.21488,8.53744 -2.8389,4.78584 -4.93735,8.08657 -5.14195,8.08796 -0.19001,0.002 -1.16507,-0.1737 -2.16667,-0.38899 l -1.8211,-0.39135 0.0611,-9.83436 0.0611,-9.83435 1.41655,-0.48775 c 1.94393,-0.6693 3.29029,-1.50783 4.64176,-2.89097 l 1.145,-1.1718 9.34913,4.67569 9.34911,4.67571 -0.15061,0.86474 c -0.083,0.4756 -0.2054,2.02288 -0.27223,3.43837 -0.10206,2.16067 -0.0422,2.85521 0.37255,4.3284 0.27174,0.96511 0.55108,2.02927 0.6207,2.36481 0.12256,0.59052 -0.13251,0.74616 -7.9571,4.85481 -4.44607,2.33462 -8.13957,4.24474 -8.2078,4.24474 -0.0682,0 -0.6941,-0.5001 -1.3909,-1.11133 z m 86.20488,-2.40293 c -1.91914,-2.64109 -5.65737,-5.04016 -8.78729,-5.63934 -0.77208,-0.14782 -1.52118,-0.38603 -1.66467,-0.52938 -0.39395,-0.39359 -1.39359,-12.73774 -1.05861,-13.07271 0.39951,-0.39953 2.45157,-1.12549 2.62865,-0.92993 0.0856,0.0945 2.13114,3.85694 4.5456,8.36081 2.41445,4.50386 4.60375,8.42571 4.86507,8.71525 0.96619,1.07044 2.9672,0.39538 2.9672,-1.00103 0,-0.72031 -0.41332,-1.54591 -5.42675,-10.83963 -2.39051,-4.4314 -3.92952,-7.53522 -3.88638,-7.83788 0.0467,-0.32778 0.23332,-0.49596 0.53939,-0.48627 0.38058,0.0119 17.12497,10.01644 18.70103,11.17343 0.44289,0.32513 0.44339,0.36657 0.0261,2.13892 -0.31353,1.33129 -0.38732,2.26073 -0.28016,3.52849 l 0.14544,1.72112 -5.75061,2.96414 c -3.16287,1.63028 -5.92478,3.00917 -6.13766,3.06422 -0.26297,0.0681 -0.72017,-0.35841 -1.42633,-1.33021 z m -32.37846,-3.37459 c -4.0961,-1.97125 -7.53418,-3.67556 -7.64011,-3.78736 -0.10605,-0.11181 -0.0346,-0.94024 0.15838,-1.84101 0.41567,-1.9398 0.29062,-4.80671 -0.30175,-6.91787 -0.2504,-0.89237 -0.31455,-1.49476 -0.1741,-1.63516 0.12217,-0.12217 3.51559,-1.74606 7.54079,-3.60841 l 7.31851,-3.38617 1.67675,1.71229 c 1.97883,2.02083 4.16475,3.21966 6.69499,3.67185 1.36678,0.24427 1.67846,0.38291 1.76388,0.7847 0.22247,1.04648 1.08377,11.89276 0.96831,12.19369 -0.0674,0.17549 -0.57534,0.43527 -1.12886,0.57726 -0.55352,0.14205 -1.3981,0.40859 -1.87682,0.59249 -0.47875,0.18385 -1.00519,0.27517 -1.16985,0.20283 -0.16474,-0.0724 -2.56688,-3.20247 -5.33822,-6.95584 -3.11757,-4.22221 -5.28092,-6.94067 -5.67369,-7.12953 -0.52264,-0.25126 -0.74823,-0.25087 -1.27616,0.002 -0.83191,0.39873 -1.30433,1.36519 -1.02562,2.09824 0.1154,0.30332 2.38864,3.48535 5.0518,7.07119 2.66316,3.58584 4.90073,6.67243 4.97234,6.8591 0.13709,0.35721 -2.41003,3.121 -2.85169,3.0943 -0.13271,-0.008 -3.59267,-1.62746 -7.68876,-3.59872 z m -25.19089,2.80981 c -4.05471,-1.13125 -7.23643,-4.37028 -8.29852,-8.4479 -1.33581,-5.12852 1.20866,-10.59437 6.04452,-12.98436 7.34972,-3.63243 15.69727,1.06473 16.64768,9.36759 0.18364,1.60447 -0.32262,4.14085 -1.19818,6.00298 -0.79747,1.69603 -3.26024,4.22547 -4.94568,5.07954 -2.49109,1.26235 -5.82358,1.65906 -8.24982,0.98215 z m 79.54869,0.13071 c -3.23107,-1.06322 -5.23973,-3.72264 -5.23506,-6.9311 0.004,-2.20497 0.68536,-3.73829 2.33299,-5.24413 1.44381,-1.31954 2.88792,-1.89186 4.7738,-1.89186 1.88586,0 3.33,0.57232 4.77378,1.89186 1.64764,1.50584 2.32977,3.03916 2.33301,5.24413 0.006,3.86143 -2.88121,6.87369 -6.75583,7.04933 -0.90079,0.0408 -1.90098,-0.0119 -2.22269,-0.11818 z m -155.07199,-1.17416 c -3.14123,-1.08501 -5.32564,-4.50024 -4.86084,-7.59968 0.34184,-2.27963 1.94176,-4.53749 3.94173,-5.56261 1.36818,-0.70131 3.93031,-0.85369 5.51333,-0.32787 1.41465,0.46983 3.36855,2.13854 4.036,3.44679 1.57476,3.08682 0.69627,6.88961 -2.0809,9.00782 -1.87673,1.43145 -4.29579,1.81394 -6.54932,1.03555 z m 56.04301,-22.984 -9.30017,-4.651262 0.14604,-1.929011 c 0.11002,-1.452774 0.0453,-2.328795 -0.26227,-3.5483 -0.3744,-1.484551 -0.37706,-1.64219 -0.0322,-1.894335 0.20688,-0.151217 5.02294,-2.73078 10.70236,-5.732252 7.92415,-4.187753 10.41146,-5.403422 10.6927,-5.226005 0.98773,0.623059 0.91947,0.838472 -1.70718,5.385811 -6.52269,11.292216 -7.37071,12.820515 -7.37071,13.283523 0,1.266628 1.60409,2.151181 2.65374,1.463421 0.29099,-0.190608 2.73387,-4.15749 5.42865,-8.815234 l 4.89961,-8.468594 0.93743,0.149819 c 0.51562,0.08237 1.02226,0.234415 1.12588,0.337901 0.19539,0.195181 2.02565,15.1882 2.03051,16.633517 l 0.002,0.818871 -2.14728,0.67865 c -2.67199,0.84448 -5.20041,2.50885 -6.84565,4.50621 -0.65098,0.79032 -1.28946,1.4868 -1.41884,1.54776 -0.12933,0.0609 -4.42035,-1.98224 -9.53543,-4.54043 z m 32.792,2.04035 c -2.06114,-1.99196 -4.73744,-3.4482 -7.30028,-3.97227 -0.87584,-0.17907 -1.64264,-0.37582 -1.70401,-0.43717 -0.17031,-0.17031 -1.99628,-16.121482 -1.91872,-16.761348 0.0535,-0.440883 0.29273,-0.627455 1.1208,-0.873827 0.57907,-0.172301 1.17267,-0.314838 1.31911,-0.316795 0.14644,-0.0021 3.14582,4.076252 6.66521,9.062665 3.51939,4.986412 6.6323,9.303115 6.91755,9.592645 0.64704,0.65672 1.462,0.67166 2.26312,0.0416 1.28417,-1.01012 1.18507,-1.19821 -5.9346,-11.263957 -3.60309,-5.094035 -6.55105,-9.324935 -6.55105,-9.401997 0,-0.077 0.10584,-0.140071 0.23537,-0.140071 0.3112,0 21.78278,11.653493 22.18928,12.043024 0.25693,0.246177 0.26357,0.548541 0.0362,1.643861 -0.1532,0.738194 -0.24228,2.29258 -0.19777,3.454193 l 0.0808,2.111977 -7.48693,3.46685 c -4.11781,1.90679 -7.59222,3.46762 -7.72091,3.46851 -0.12874,0 -1.03458,-0.77207 -2.0131,-1.71775 z m 27.25425,-0.22007 c -4.30936,-1.0976 -7.24535,-5.577519 -6.41644,-9.790676 0.56746,-2.884337 2.37419,-5.191202 5.03991,-6.434965 1.21507,-0.566948 1.68688,-0.654276 3.50948,-0.649538 1.78206,0.0042 2.31198,0.101271 3.44769,0.628922 1.71107,0.795004 3.5409,2.622542 4.34617,4.340732 0.5444,1.161571 0.62894,1.640799 0.62871,3.564681 0,2.003565 -0.0693,2.359055 -0.70008,3.606204 -1.87534,3.70742 -6.03764,5.70705 -9.85544,4.73464 z m -82.03329,-2.47712 c -1.72757,-0.55672 -3.62783,-2.34441 -4.46161,-4.197326 -0.76135,-1.691927 -0.68791,-4.008261 0.18146,-5.726716 1.33047,-2.629587 3.53129,-3.998674 6.44098,-4.006689 1.4514,-0.0042 1.98371,0.107636 3.07912,0.645533 2.56956,1.261849 4.03005,3.569853 4.03005,6.368617 0,2.698604 -1.54373,5.236111 -3.95062,6.493801 -1.03652,0.5416 -4.17633,0.79116 -5.31946,0.42278 z m 39.44502,-22.948097 c -1.64167,-0.651068 -3.12176,-2.017331 -3.94235,-3.639206 -2.32493,-4.595113 1.18035,-10.160032 6.39969,-10.160032 1.86507,0 3.33147,0.55778 4.69907,1.787355 2.23474,2.009218 2.99992,4.910147 2.03843,7.728192 -1.2256,3.592097 -5.6919,5.672877 -9.19484,4.283691 z m -19.6055,175.853107 c 0.25807,-0.18066 2.28192,-3.05179 4.49744,-6.38009 4.39043,-6.59556 4.59732,-7.08161 3.41175,-8.01417 -0.63505,-0.49956 -1.16244,-0.59564 -1.84061,-0.33539 -0.61677,0.23667 -8.77332,12.61192 -8.77332,13.311 0,0.74707 0.9686,1.7473 1.69206,1.7473 0.29891,0 0.75463,-0.14783 1.01268,-0.32865 z m 58.8019,-0.0808 c 0.27122,-0.22521 0.55383,-0.7253 0.62805,-1.11135 0.11798,-0.61422 -0.44674,-1.60785 -4.52156,-7.95488 -3.56617,-5.55471 -4.80279,-7.30461 -5.28145,-7.4736 -1.42335,-0.50245 -2.85792,0.87429 -2.26882,2.17737 0.57681,1.27589 8.96238,14.08944 9.43907,14.42331 0.66096,0.46294 1.40085,0.44048 2.00471,-0.0609 z m -99.7258,-20.94524 c 0.62552,-0.65431 6.86762,-12.04319 6.86762,-12.53025 0,-0.70491 -1.00388,-1.67802 -1.73107,-1.67802 -0.32037,0 -0.8452,0.23689 -1.16626,0.52642 -0.8643,0.77944 -6.92928,11.65347 -6.92928,12.42366 0,0.37648 0.24793,0.88919 0.60043,1.24169 0.48613,0.48615 0.7416,0.57219 1.34218,0.45207 0.40797,-0.0816 0.86533,-0.27761 1.01638,-0.43557 z m 140.70483,-7.07655 c 0.80714,-0.41738 1.09928,-1.30464 0.71052,-2.15786 -0.15201,-0.33378 -1.70453,-2.58204 -3.44991,-4.99615 -2.07474,-2.86963 -3.39194,-4.47976 -3.80459,-4.65072 -1.17447,-0.48644 -2.355,0.35723 -2.355,1.68308 0,0.69248 6.64237,9.96443 7.34035,10.24628 0.69759,0.28171 0.78663,0.27459 1.55863,-0.12455 z"
         id="path27"
         inkscape:connector-curvature="0"
         sodipodi:nodetypes="ccccscscscccccccccccccccsccccccscccsccccccccccccscsccccccccccccscsccccccsscccccccccccccccccccccsccsccscscsscccccsscsccccscccccsccccccscccccccsccssccscccccccsscccccccsccccscsccccccccsccccccccccccsccccsccccccccssscccssccscccssccssscccccccccccscccccccccccscccsccccccccccccccccccccccscccccccccccsccccccscccccccccccccccccccccccsccssccccsccccccccscccccccccccscsccccccccccccsscccccccccccscccccccccsccccccccccccccccsccccccccccccccccccccccccscscssccccccccsccscccscccccccccscccsccscsccccsccccccccccsccsscccscccccsccccccsccccccccccccccccscccccccccccccccccccccscscccccscccccscccccccccccccsccsccccccccccccsccccccscsccccccssccscccccccccccccccsccccccccscccscscccsccccccccsccsccccccsccccccccsccccccccccccccccccccccccccccccccccccsscccccccccccccsccccsccccccccccccccccccccscccscccccsccccsscccccccccccscccccccccscccccscccccccccccccccccscccccscccsccccccccccccccccccccccccccccccccccscccccscccscccccscccccsccccccccscscccccsccccccccccsccsssccccccccccccccccccccccscccccscccccccssccccccccccsscscccccscsccc"
         inkscape:export-xdpi="179"
         inkscape:export-ydpi="179" />
    </g>
  </g>
</svg>
